<?xml version="1.0" encoding="utf-8"?>
<!-- Generator: Adobe Illustrator 16.0.0, SVG Export Plug-In . SVG Version: 6.00 Build 0)  -->
<!DOCTYPE svg PUBLIC "-//W3C//DTD SVG 1.1//EN" "http://www.w3.org/Graphics/SVG/1.1/DTD/svg11.dtd">
<svg version="1.1" id="图层_1" xmlns="http://www.w3.org/2000/svg" xmlns:xlink="http://www.w3.org/1999/xlink" x="0px" y="0px"
	 width="334.371px" height="380.563px" viewBox="0 0 334.371 380.563" enable-background="new 0 0 334.371 380.563"
	 xml:space="preserve">
<g id="icon_EPUB_file">
	<g id="contour_1">
		<polygon fill="#FFFFFF" points="51.791,356.646 51.791,23.99 204.497,23.99 282.646,102.066 282.646,356.646 		"/>
		<path d="M201.186,31.99l73.46,73.393v243.264H59.791V31.99H201.186 M207.809,15.99H43.791v348.656h246.854V98.75L207.809,15.99
			L207.809,15.99z"/>
	</g>
	<g id="contour_2">
		<polygon fill="#FFFFFF" points="51.791,356.646 51.791,23.99 204.497,23.99 206.309,25.8 206.309,100.327 280.904,100.327 
			282.646,102.066 282.646,356.646 		"/>
		<path d="M198.309,31.99v60.337v16h16h60.337v240.319H59.791V31.99H198.309 M207.809,15.99H43.791v348.656h246.854V98.75
			l-6.431-6.424h-69.906V22.484L207.809,15.99L207.809,15.99z"/>
	</g>
	<g id="triangle">
		<polygon points="219.643,87.75 219.643,48.667 258.309,86.38 258.309,87.75 		"/>
		<path d="M227.643,67.646l12.41,12.104h-12.41V67.646 M222.641,40.417h-10.998V95.75h54.666V83.008L222.641,40.417L222.641,40.417z
			"/>
	</g>
	<g id="green_square">
		<polygon fill="#945D00" points="22.544,284.49 22.544,167.682 37.291,152.935 37.291,171.49 297.146,171.49 297.146,152.935 
			311.893,167.682 311.893,284.49 		"/>
		<path fill="#945D00" d="M303.646,168.627l1.747,1.747V277.99H29.044V170.374l1.747-1.747v9.362h13h246.854h13L303.646,168.627
			 M290.646,137.242v27.747H43.791v-27.747L16.044,164.99V290.99h302.35V164.99L290.646,137.242L290.646,137.242z"/>
	</g>
	<rect x="30.112" y="191.657" fill="none" width="279.547" height="73.426"/>
	<text id="EPUB" transform="matrix(1 0 0 1 62.1121 263.2561)" fill="#FFFFFF" font-family="'Arial-BoldMT'" font-size="100">CBZ</text>
</g>
</svg>
