<?xml version="1.0" standalone="yes"?><svg fill="#ffffff" xmlns="http://www.w3.org/2000/svg" width="24px" height="24px" viewBox="0 0 24 24" role="img" style="zoom: 1;"><title>Goodreads icon</title><path d="M19.525,15.977 V.49 h-2.059 v2.906 h-.064 c-.211,-.455 -.481,-.891 -.842,-1.307 c-.36,-.412 -.767,-.777 -1.232,-1.094 c-.466,-.314 -.962,-.561 -1.519,-.736 C13.256,.09 12.669,0 12.038,0 c-1.21,0 -2.3,.225 -3.246,.67 c-.947,.447 -1.743,1.057 -2.385,1.83 c-.642,.773 -1.133,1.676 -1.47,2.711 c-.336,1.037 -.506,2.129 -.506,3.283 c0,1.199 .141,2.326 .425,3.382 c.286,1.057 .737,1.976 1.368,2.762 c.631,.78 1.412,1.397 2.375,1.833 c.961,.436 2.119,.661 3.471,.661 c1.248,0 2.33,-.315 3.262,-.946 s1.638,-1.473 2.119,-2.525 h.061 v2.284 c0,2.044 -.421,3.607 -1.264,4.705 c-.84,1.081 -2.224,1.638 -4.146,1.638 c-.572,0 -1.128,-.061 -1.669,-.181 c-.542,-.12 -1.036,-.315 -1.487,-.57 c-.437,-.271 -.827,-.601 -1.143,-1.038 c-.316,-.435 -.526,-.961 -.632,-1.593 H5.064 c.067,.887 .315,1.654 .737,2.3 c.424,.646 .961,1.172 1.602,1.593 c.641,.406 1.367,.706 2.172,.902 c.811,.194 1.639,.3 2.494,.3 c1.383,0 2.541,-.195 3.486,-.555 c.947,-.376 1.714,-.902 2.301,-1.608 c.601,-.708 1.021,-1.549 1.293,-2.556 c.27,-1.007 .42,-2.134 .42,-3.367 l-.044,.062 m-7.484,-.557 c-.955,0 -1.784,-.189 -2.479,-.571 c-.697,-.38 -1.277,-.882 -1.732,-1.503 c-.467,-.621 -.797,-1.332 -1.022,-2.139 s-.332,-1.633 -.332,-2.484 c0,-.871 .105,-1.725 .301,-2.563 c.21,-.84 .54,-1.587 .992,-2.24 c.451,-.652 1.037,-1.182 1.728,-1.584 s1.533,-.605 2.51,-.605 s1.803,.209 2.495,.621 c.676,.415 1.247,.959 1.683,1.634 c.436,.677 .751,1.429 .947,2.255 c.195,.826 .285,1.656 .285,2.482 c0,.852 -.12,1.678 -.345,2.484 c-.226,.807 -.572,1.518 -1.038,2.139 c-.465,.621 -1.021,1.123 -1.698,1.503 c-.676,.382 -1.458,.571 -2.359,.571 h.064 "></path></svg>