<?xml version="1.0" standalone="yes"?><svg xmlns="http://www.w3.org/2000/svg" width="24" height="24" viewBox="0 0 24 24" style="zoom: 16;"><circle stroke="none" transform="" id="circle1" stroke-width="3px" cy="11.5625px" fill="#ffffff" r="11.3125px" cx="12.25px"></circle><path d="M12,0 c-6.627,0 -12,5.373 -12,12 s5.373,12 12,12 s12,-5.373 12,-12 s-5.373,-12 -12,-12 m.919,7.433 c-.224,-.338 -.656,-.478 -1.035,-.478 c-.703,0 -1.328,.36 -1.482,1.107 c-.032,.167 -.153,.331 -.321,.339 l-1.786,-.194 c-.151,-.033 -.319,-.155 -.275,-.385 c.411,-2.168 2.368,-2.822 4.122,-2.822 c.897,0 2.069,.239 2.776,.918 c.897,.838 .812,1.955 .812,3.172 v2.872 c0,.864 .359,1.243 .695,1.708 c.119,.167 .144,.368 -.006,.49 c-.377,.316 -1.046,.897 -1.413,1.224 c-.122,.11 -.304,.113 -.439,.039 c-.614,-.509 -.722,-.744 -1.058,-1.229 c-1.012,1.031 -1.728,1.34 -3.039,1.34 c-1.552,0 -2.76,-.957 -2.76,-2.873 c0,-1.497 .811,-2.513 1.966,-3.012 c1,-.44 2.397,-.52 3.466,-.639 v-.239 c0,-.439 .035,-.958 -.223,-1.338 m4.366,9.529 c-1.43,1.33 -3.503,2.038 -5.289,2.038 c-2.502,0 -4.755,-1.166 -6.46,-3.107 c-.134,-.152 -.015,-.36 .146,-.242 c1.84,1.349 4.115,2.162 6.464,2.162 c1.585,0 3.328,-.413 4.931,-1.272 c.242,-.13 .445,.201 .208,.421 m.363,.957 c-.12,.1 -.234,.047 -.181,-.086 c.176,-.438 .569,-1.421 .382,-1.659 c-.186,-.239 -1.23,-.113 -1.7,-.057 c-.142,.017 -.164,-.107 -.036,-.197 c.833,-.585 2.198,-.416 2.357,-.22 c.161,.197 -.041,1.566 -.822,2.219 m-4.506,-7.432 v.399 c0,.719 .017,1.316 -.345,1.955 c-.293,.52 -.759,.839 -1.275,.839 c-.708,0 -1.121,-.539 -1.121,-1.337 c-.001,-1.571 1.408,-1.856 2.741,-1.856 "></path></svg>